<?xml version="1.0" standalone="no"?>
<!DOCTYPE svg PUBLIC "-//W3C//DTD SVG 20010904//EN"
 "http://www.w3.org/TR/2001/REC-SVG-20010904/DTD/svg10.dtd">
<svg version="1.0" xmlns="http://www.w3.org/2000/svg"
 width="1080.000000pt" height="1080.000000pt" viewBox="0 0 1080.000000 1080.000000"
 preserveAspectRatio="xMidYMid meet">

<g transform="translate(0.000000,1080.000000) scale(0.100000,-0.100000)"
fill="#000000" stroke="none">
<path d="M6868 7433 c-10 -10 -29 -28 -43 -41 -14 -12 -25 -31 -25 -42 0 -10
-6 -25 -14 -33 -8 -7 -19 -40 -24 -73 -5 -32 -15 -72 -21 -89 -6 -16 -18 -56
-27 -89 -20 -68 -60 -111 -113 -121 -20 -4 -41 -11 -47 -16 -21 -17 -105 -59
-118 -59 -8 0 -19 -6 -25 -14 -7 -8 -27 -18 -44 -22 -35 -7 -79 -36 -114 -74
-18 -20 -22 -37 -23 -88 0 -47 4 -64 15 -68 8 -4 15 -11 15 -16 0 -6 10 -21
23 -34 30 -32 120 -35 137 -4 7 12 21 20 37 20 15 0 34 7 43 15 9 8 31 18 48
21 l32 7 0 -45 c0 -24 -7 -69 -16 -98 -9 -30 -17 -86 -18 -125 -3 -88 -28
-163 -80 -240 -23 -33 -43 -62 -47 -65 -3 -3 -16 -23 -29 -45 -13 -22 -49 -65
-82 -96 -36 -35 -58 -65 -58 -78 0 -16 -5 -21 -17 -19 -11 2 -17 11 -15 23 2
11 5 38 7 60 2 22 8 67 15 100 26 134 -9 234 -99 282 -44 23 -105 31 -115 14
-3 -4 -23 -11 -44 -15 -22 -3 -45 -13 -52 -21 -7 -8 -20 -15 -30 -15 -9 0 -28
-8 -41 -19 -31 -24 -66 -34 -73 -22 -4 5 -27 24 -52 40 -39 27 -54 31 -114 31
-61 0 -75 -4 -115 -31 -49 -33 -115 -112 -115 -137 0 -9 -8 -24 -17 -34 -11
-12 -19 -41 -21 -81 -3 -52 0 -70 22 -110 14 -27 46 -64 71 -83 l45 -35 -17
-27 c-9 -15 -32 -42 -50 -59 -18 -18 -33 -37 -33 -42 0 -5 -21 -28 -47 -51
-54 -47 -57 -44 -66 42 -4 41 -13 68 -32 92 -25 33 -26 37 -14 73 7 21 20 46
29 57 10 12 15 39 15 80 0 51 -4 67 -25 93 -14 18 -34 32 -45 32 -11 1 -37 10
-58 21 -45 24 -138 28 -157 5 -6 -8 -38 -17 -71 -21 -33 -4 -62 -10 -64 -14
-3 -5 -26 -19 -53 -31 -118 -57 -179 -111 -253 -222 -32 -49 -59 -94 -59 -101
0 -6 -9 -19 -20 -29 -11 -9 -20 -25 -20 -36 0 -10 -6 -24 -14 -30 -8 -7 -17
-27 -20 -46 -4 -19 -11 -35 -16 -35 -4 0 -12 -15 -15 -32 -4 -18 -14 -42 -21
-53 -8 -11 -14 -40 -14 -65 0 -27 -8 -58 -20 -78 -28 -46 -28 -149 0 -185 11
-14 20 -36 20 -50 0 -29 58 -97 82 -97 9 0 21 -7 28 -15 8 -9 30 -15 60 -15
30 0 52 6 60 15 7 8 25 15 41 15 15 0 32 6 36 13 4 7 19 20 33 29 37 23 99 89
150 157 24 34 47 61 51 61 4 0 9 13 12 29 3 16 12 31 20 34 15 6 77 -39 77
-54 0 -12 33 -44 53 -52 9 -3 17 -13 17 -22 0 -22 192 -22 210 0 6 8 20 17 31
20 40 13 157 138 229 245 8 12 22 32 31 44 9 11 19 33 23 49 3 15 10 27 15 27
5 0 14 14 21 30 7 17 16 30 21 30 5 0 9 9 9 19 0 11 5 23 11 27 6 3 17 22 25
40 8 19 19 34 24 34 5 0 12 16 16 35 3 19 10 35 15 35 5 0 15 16 23 35 16 39
61 58 78 34 5 -8 7 -52 5 -99 -5 -113 9 -252 27 -262 8 -4 17 -19 20 -33 4
-15 16 -27 31 -31 13 -3 29 -12 36 -20 16 -19 106 -19 125 1 9 8 26 15 38 15
13 0 31 9 41 20 10 11 25 20 33 20 8 0 29 16 48 35 18 19 35 35 38 35 3 0 25
21 50 48 67 70 76 81 76 90 0 5 9 17 20 27 11 10 20 24 20 31 0 15 38 28 67
22 11 -2 19 -13 21 -30 2 -15 10 -32 18 -38 8 -7 14 -18 14 -24 0 -13 44 -56
58 -56 5 0 12 -7 16 -15 4 -12 23 -15 85 -15 61 0 80 3 85 15 3 8 17 15 30 15
15 0 30 8 36 20 6 11 16 20 21 20 15 0 154 140 162 163 3 9 13 17 22 17 8 0
15 6 15 14 0 14 41 46 60 46 11 0 23 -9 57 -40 29 -26 92 -39 163 -33 37 3 70
2 73 -3 3 -5 -3 -25 -13 -44 -11 -19 -24 -46 -30 -59 -6 -13 -24 -41 -40 -61
-17 -21 -30 -42 -30 -47 0 -6 -9 -18 -20 -28 -11 -10 -20 -24 -20 -32 0 -7 -6
-16 -14 -19 -8 -3 -18 -19 -21 -36 -4 -16 -13 -32 -21 -35 -8 -3 -14 -13 -14
-23 0 -9 -9 -29 -20 -43 -11 -14 -20 -33 -20 -44 0 -10 -7 -31 -16 -48 -25
-47 -25 -200 1 -250 26 -49 61 -85 84 -85 10 0 24 -7 31 -15 16 -20 126 -21
145 -1 8 7 32 16 54 20 23 3 41 11 41 16 0 6 7 13 16 17 22 8 134 119 134 133
0 5 7 10 15 10 8 0 15 6 15 13 0 8 9 22 20 32 11 10 20 23 20 29 0 6 16 35 35
63 19 29 35 59 35 66 0 8 9 26 20 40 11 14 20 32 20 41 0 9 9 34 20 56 11 22
20 49 20 61 0 11 6 35 14 52 8 18 19 50 24 72 6 22 16 60 23 85 6 25 17 61 25
80 7 19 16 62 19 94 4 33 13 69 20 80 7 12 15 50 19 85 5 54 12 71 44 110 44
54 145 164 223 241 30 30 63 67 72 82 9 15 41 46 71 70 53 41 55 45 55 91 1
34 -5 56 -19 74 -11 14 -20 32 -20 39 0 8 -9 23 -21 35 -24 24 -18 28 -140
-88 -42 -40 -81 -73 -86 -73 -5 0 -15 -11 -21 -25 -7 -14 -24 -31 -38 -37 -22
-10 -28 -10 -39 5 -13 18 -9 63 6 73 5 3 9 57 9 121 0 90 -4 125 -17 154 -10
21 -23 39 -29 39 -6 0 -23 9 -37 20 -18 14 -40 20 -78 20 -80 0 -124 -41 -179
-167 -23 -54 -49 -105 -56 -114 -8 -8 -14 -23 -14 -32 0 -9 -9 -26 -20 -37
-11 -11 -20 -23 -20 -26 0 -4 -12 -26 -27 -50 -28 -44 -62 -56 -54 -19 2 11 4
50 4 87 0 54 -4 73 -24 102 -13 20 -28 36 -32 36 -5 0 -20 9 -34 20 -38 30
-112 27 -169 -6 -52 -31 -94 -78 -94 -106 0 -12 -7 -29 -15 -38 -9 -10 -20
-43 -25 -75 -5 -32 -14 -63 -20 -69 -5 -5 -10 -20 -10 -33 0 -26 -38 -142 -53
-161 -11 -14 -41 -67 -56 -100 -14 -29 -108 -156 -149 -202 -18 -19 -32 -40
-32 -46 0 -18 -26 -35 -42 -29 -13 5 -15 28 -11 143 3 75 9 171 14 212 25 193
32 236 41 253 5 10 13 54 17 97 7 61 14 85 35 112 23 31 33 36 82 41 31 3 63
12 73 20 9 8 45 17 81 20 36 3 79 13 95 21 17 9 37 16 46 16 8 0 25 10 37 23
30 31 30 97 0 146 -42 68 -49 71 -178 71 -74 0 -120 -4 -127 -11 -17 -17 -28
33 -14 59 6 12 11 52 11 91 0 55 -5 77 -22 105 -13 19 -29 35 -35 36 -7 0 -22
9 -33 20 -26 26 -89 27 -112 3z m124 -55 c45 -40 57 -76 43 -122 -29 -97 -44
-153 -49 -185 -5 -28 -3 -32 12 -28 9 4 37 11 62 18 25 7 71 20 103 30 84 28
119 25 156 -12 17 -17 31 -39 31 -50 0 -11 4 -29 10 -39 7 -14 4 -24 -17 -44
-14 -15 -36 -28 -47 -30 -12 -2 -43 -9 -71 -16 -27 -6 -77 -17 -111 -23 -34
-7 -67 -17 -75 -23 -8 -6 -36 -14 -63 -18 -27 -3 -51 -8 -54 -10 -2 -3 -8 -33
-12 -68 -5 -35 -13 -76 -19 -93 -12 -37 -41 -212 -52 -320 -4 -44 -12 -93 -18
-108 -12 -32 -15 -377 -3 -377 31 2 89 54 166 150 38 47 72 87 75 90 4 3 12
16 19 30 7 14 21 39 32 55 41 63 110 215 110 242 0 16 5 34 11 40 7 7 16 36
20 65 5 29 15 67 23 83 8 17 17 42 20 56 3 14 23 45 45 69 39 43 39 43 113 44
86 1 103 -8 117 -63 11 -39 -8 -154 -28 -174 -6 -6 -11 -22 -11 -37 0 -14 -8
-54 -19 -90 -11 -36 -25 -90 -31 -120 -13 -60 -23 -174 -14 -150 4 8 11 20 18
25 17 16 56 73 56 83 0 5 7 16 16 23 9 7 20 22 26 34 5 11 20 38 33 60 13 22
38 68 55 103 17 34 36 62 41 62 5 0 9 7 9 16 0 9 8 33 19 53 10 20 35 72 56
116 20 44 46 97 56 117 11 20 19 45 19 55 1 36 48 67 109 71 76 6 116 -14 130
-65 13 -45 -2 -267 -25 -371 -24 -112 -19 -115 66 -27 171 177 226 226 265
236 33 9 46 -3 52 -47 6 -46 -17 -79 -142 -209 -42 -44 -103 -109 -134 -143
-31 -35 -80 -89 -108 -120 -34 -37 -53 -66 -53 -82 0 -14 -6 -36 -13 -51 -8
-14 -17 -57 -20 -97 -4 -39 -13 -86 -21 -104 -8 -18 -19 -55 -24 -83 -21 -101
-35 -150 -48 -170 -8 -11 -14 -32 -14 -48 0 -15 -9 -45 -20 -67 -11 -22 -20
-47 -20 -56 0 -9 -6 -28 -14 -42 -8 -15 -27 -53 -43 -86 -49 -102 -63 -126
-73 -126 -6 0 -10 -6 -10 -14 0 -25 -118 -166 -139 -166 -6 0 -11 -5 -11 -10
0 -6 -12 -16 -27 -23 -16 -6 -34 -17 -40 -24 -18 -16 -113 -27 -170 -18 -92
14 -160 129 -134 230 25 101 35 131 47 145 7 8 16 28 20 43 3 16 13 31 20 34
8 3 14 11 14 19 0 7 25 50 55 94 30 44 55 85 55 90 0 5 6 13 13 17 6 4 26 28
42 53 16 25 36 49 42 53 7 4 13 15 13 23 0 8 7 17 15 20 8 4 15 10 15 16 0 11
88 121 101 126 5 2 9 9 9 16 0 6 8 19 18 27 37 34 52 60 58 101 3 24 12 60 20
81 8 20 14 63 13 95 -1 54 -1 56 -13 29 -7 -16 -17 -32 -22 -35 -5 -4 -15 -18
-22 -32 -16 -34 -32 -58 -66 -103 -16 -22 -40 -55 -54 -75 -13 -21 -30 -44
-38 -52 -7 -8 -33 -36 -57 -62 -24 -27 -50 -48 -57 -48 -8 0 -24 -7 -34 -15
-28 -21 -89 -19 -132 4 -37 20 -71 66 -84 110 -6 23 -8 21 -46 -33 -61 -88
-119 -163 -160 -204 -55 -55 -135 -112 -157 -112 -10 0 -33 -7 -51 -15 -30
-14 -36 -14 -77 4 -47 21 -89 55 -89 72 0 6 -6 17 -14 24 -7 8 -17 35 -21 61
-5 38 -20 86 -32 103 -4 6 -52 -53 -53 -65 0 -6 -9 -19 -20 -29 -11 -10 -20
-24 -20 -32 0 -7 -4 -13 -8 -13 -5 0 -22 -19 -39 -42 -49 -69 -143 -160 -213
-207 -61 -41 -69 -44 -137 -45 -83 -1 -104 12 -142 90 -22 43 -23 55 -19 197
2 86 9 161 15 172 6 11 13 36 15 55 3 30 0 35 -17 32 -11 -2 -28 -11 -38 -20
-9 -10 -25 -24 -35 -33 -9 -9 -27 -22 -39 -28 -13 -6 -23 -20 -23 -30 0 -10
-9 -30 -20 -44 -11 -14 -20 -32 -20 -40 0 -9 -5 -19 -11 -23 -6 -3 -17 -21
-25 -38 -21 -46 -86 -160 -94 -166 -4 -3 -10 -15 -14 -27 -4 -13 -11 -23 -17
-23 -5 0 -15 -15 -24 -32 -46 -101 -187 -256 -274 -300 -64 -34 -97 -35 -153
-6 -68 35 -118 97 -132 164 -6 25 -11 31 -27 27 -10 -3 -19 -10 -19 -16 0 -12
-91 -150 -102 -155 -5 -2 -8 -10 -8 -17 0 -8 -6 -18 -14 -22 -8 -4 -30 -28
-49 -53 -19 -25 -54 -59 -78 -75 -24 -17 -47 -34 -50 -39 -11 -14 -101 -27
-144 -20 -56 8 -111 69 -121 131 -11 73 2 254 20 288 9 17 16 37 16 46 0 8 7
24 15 35 8 10 15 29 15 40 0 12 9 33 20 47 11 14 20 32 20 40 0 8 9 26 20 40
11 14 20 28 20 31 0 10 44 70 58 79 6 4 12 13 12 19 0 5 33 43 73 82 77 77
189 156 221 156 11 0 28 8 38 17 16 14 40 17 137 18 131 0 147 -6 176 -69 13
-28 12 -37 -4 -86 -14 -42 -28 -63 -60 -87 -40 -31 -48 -33 -121 -33 -57 0
-81 -4 -90 -15 -7 -8 -18 -15 -25 -15 -38 0 -255 -260 -255 -306 0 -6 -7 -17
-15 -24 -8 -7 -15 -24 -15 -39 0 -14 -9 -46 -20 -70 -22 -47 -26 -91 -9 -91
11 0 79 70 79 82 0 4 6 13 13 20 22 24 57 77 57 86 0 5 7 16 16 23 9 7 20 22
25 34 5 11 20 38 34 60 13 22 27 47 31 55 15 31 51 76 102 129 51 54 54 55
116 59 59 4 65 2 97 -27 l34 -31 5 -126 c7 -164 16 -171 103 -79 66 70 87 94
87 100 0 6 16 28 60 82 6 7 10 16 10 20 0 5 9 16 20 26 11 9 20 23 20 31 0 7
7 19 15 26 22 18 18 30 -8 30 -28 0 -93 43 -108 72 -6 11 -11 61 -11 110 0 81
3 93 28 129 39 57 85 99 114 105 14 3 33 9 42 15 26 13 51 11 88 -8 44 -21 79
-62 80 -90 0 -27 37 -33 46 -8 4 8 12 15 20 15 7 0 17 6 21 13 10 15 86 67 98
67 5 0 17 8 28 17 14 13 36 18 87 18 61 0 70 -3 97 -30 46 -46 59 -112 44
-222 -6 -48 -17 -101 -22 -118 -21 -59 -29 -101 -29 -152 0 -29 2 -53 5 -53 7
0 155 148 155 155 0 2 33 47 73 99 160 210 186 254 187 324 0 24 5 53 12 65 6
12 15 58 19 103 4 45 14 92 22 105 8 13 17 59 20 102 l6 78 -32 -6 c-18 -4
-39 -13 -47 -19 -8 -7 -40 -25 -70 -41 -30 -15 -57 -30 -60 -34 -4 -5 -52 -30
-91 -48 -4 -1 -17 6 -29 17 -13 11 -26 20 -30 20 -3 0 -14 23 -24 50 -17 48
-17 51 0 78 26 40 124 102 162 102 10 0 25 9 35 20 9 11 28 20 42 20 14 0 25
4 25 10 0 5 12 13 28 16 15 4 43 15 62 26 19 10 44 18 55 18 30 0 62 49 70
106 4 27 13 56 20 64 7 8 15 41 19 74 3 32 13 68 21 79 8 12 15 36 15 53 0 31
31 75 61 87 34 14 87 6 111 -15z m-2232 -1918 c0 -5 -5 -10 -11 -10 -5 0 -7 5
-4 10 3 6 8 10 11 10 2 0 4 -4 4 -10z"/>
<path d="M6896 7285 c-9 -13 -16 -37 -16 -52 -1 -15 -9 -53 -20 -83 -11 -30
-19 -65 -20 -78 0 -13 -6 -35 -14 -50 -7 -15 -16 -45 -19 -66 -7 -45 -47 -86
-82 -86 -13 0 -28 -7 -35 -15 -7 -8 -21 -15 -32 -15 -19 0 -36 -7 -140 -61
-20 -10 -43 -19 -51 -19 -8 0 -20 -6 -26 -14 -7 -8 -23 -17 -37 -20 -33 -9
-64 -37 -64 -58 0 -28 22 -22 113 32 47 28 92 50 101 50 9 0 16 4 16 10 0 5
12 12 28 16 15 4 37 13 50 21 32 20 61 13 85 -19 21 -29 20 -51 -14 -183 -6
-22 -15 -67 -20 -100 -5 -33 -16 -80 -24 -104 -8 -25 -15 -69 -15 -98 0 -55
-42 -195 -60 -201 -6 -2 -10 -9 -10 -16 0 -7 -9 -21 -20 -31 -28 -26 -26 -55
4 -55 35 0 43 -17 50 -114 4 -51 14 -98 22 -110 8 -11 14 -28 14 -36 0 -26 43
-60 77 -60 17 0 51 11 76 26 64 35 209 185 194 200 -9 9 -27 -6 -27 -22 0 -8
-7 -14 -15 -14 -7 0 -18 -6 -22 -13 -15 -26 -105 -87 -127 -87 -58 0 -86 84
-85 250 0 123 24 387 36 402 6 7 13 54 16 103 3 50 12 108 20 130 9 22 18 68
21 103 6 67 38 142 60 142 8 0 33 9 57 20 24 11 57 20 72 20 15 0 38 6 50 14
12 7 50 16 84 20 69 6 140 40 109 52 -26 10 -113 -3 -138 -21 -13 -8 -41 -15
-63 -15 -23 0 -50 -7 -61 -15 -26 -20 -40 -19 -74 7 -35 25 -40 73 -14 123 8
16 18 50 21 75 3 25 12 55 19 67 8 12 14 34 14 48 0 34 -41 35 -64 0z"/>
<path d="M7948 6876 c-9 -12 -20 -39 -23 -59 -4 -20 -13 -41 -21 -48 -8 -6
-14 -20 -14 -31 0 -11 -9 -31 -20 -45 -11 -14 -20 -34 -20 -43 0 -10 -6 -23
-14 -29 -8 -7 -17 -24 -21 -39 -4 -15 -11 -32 -17 -39 -16 -19 -48 -86 -48
-100 0 -15 12 -17 26 -4 5 6 21 4 42 -4 l32 -14 0 -90 c0 -51 -6 -109 -14
-133 -8 -24 -17 -74 -21 -112 -7 -72 -25 -109 -84 -176 -17 -19 -36 -41 -42
-49 -9 -10 -4 -20 26 -48 34 -31 36 -37 30 -71 -3 -20 -13 -47 -21 -59 -8 -12
-14 -37 -14 -55 0 -18 -9 -53 -20 -77 -11 -24 -20 -50 -20 -58 0 -15 -29 -87
-55 -136 -8 -16 -15 -33 -15 -37 0 -17 -87 -138 -115 -162 -5 -5 -23 -19 -38
-33 -21 -18 -39 -25 -71 -25 -58 0 -84 28 -88 95 l-3 50 -9 -57 c-12 -83 -3
-119 39 -145 42 -28 79 -29 125 -5 90 46 129 82 186 169 21 32 41 60 45 63 4
3 11 18 14 33 4 16 13 31 20 34 7 2 16 19 19 38 4 18 13 38 21 45 8 7 15 22
15 34 0 12 6 30 14 41 7 11 17 35 21 53 4 18 13 45 21 60 8 15 14 38 14 52 0
14 9 43 20 65 11 22 19 58 20 80 0 22 6 50 14 61 8 11 18 49 22 85 3 35 13 79
20 98 8 18 14 50 14 70 0 43 29 101 71 142 24 24 28 33 19 48 -5 11 -19 23
-30 26 -16 5 -20 15 -20 46 0 22 6 52 14 67 8 16 16 77 19 147 4 67 13 138 21
160 21 56 20 108 -2 128 -26 24 -64 21 -84 -7z"/>
<path d="M7427 6701 c-27 -11 -44 -27 -55 -51 -19 -43 -50 -149 -62 -213 -5
-27 -13 -54 -18 -60 -6 -7 -13 -26 -16 -44 -4 -17 -14 -37 -22 -44 -8 -6 -14
-17 -14 -25 0 -15 -47 -106 -59 -114 -5 -3 -11 -15 -15 -27 -6 -20 -4 -23 21
-23 37 0 53 -16 53 -52 0 -15 9 -45 20 -65 11 -21 20 -43 20 -50 0 -9 17 -13
55 -13 51 0 58 3 95 40 44 44 55 79 20 60 -16 -8 -26 -6 -50 12 -46 34 -47 41
-10 203 5 22 9 58 10 80 0 22 6 49 14 60 7 11 16 43 20 70 4 28 13 66 20 85
23 61 46 137 46 151 0 28 -33 37 -73 20z"/>
<path d="M7712 6380 c0 -14 2 -19 5 -12 2 6 2 18 0 25 -3 6 -5 1 -5 -13z"/>
<path d="M6005 6154 c-22 -13 -50 -29 -62 -35 -13 -7 -23 -18 -23 -26 0 -7
-11 -13 -25 -13 -14 0 -25 -4 -25 -10 0 -8 58 -3 69 6 2 2 16 -3 32 -12 26
-13 29 -20 29 -65 0 -28 -5 -59 -11 -70 -15 -29 -31 -243 -23 -321 5 -51 12
-74 30 -93 23 -25 58 -33 69 -16 3 5 19 12 35 16 16 4 33 12 37 19 5 7 17 18
28 24 17 10 13 11 -27 12 -66 0 -78 16 -78 98 1 37 5 85 10 107 28 122 39 163
49 188 6 16 11 60 11 99 0 63 -3 73 -26 94 -31 29 -47 29 -99 -2z"/>
<path d="M5542 6108 c-23 -22 -44 -54 -47 -69 -4 -16 -11 -31 -16 -34 -15 -10
-10 -61 9 -94 14 -26 23 -31 57 -31 40 0 78 -18 103 -48 11 -14 12 -14 12 0 0
8 8 26 18 39 11 13 22 36 26 52 3 15 11 27 17 27 6 0 24 11 41 25 l30 25 -29
0 c-40 0 -60 18 -66 63 -3 20 -13 44 -21 53 -9 8 -16 20 -16 25 0 5 -17 9 -38
9 -32 0 -46 -7 -80 -42z"/>
<path d="M4968 5936 c-37 -6 -70 -15 -75 -19 -4 -5 -21 -15 -38 -23 -45 -21
-62 -34 -124 -94 -63 -62 -131 -144 -131 -158 0 -5 -6 -15 -14 -21 -20 -16
-96 -174 -96 -198 0 -11 -6 -26 -14 -32 -8 -6 -17 -37 -21 -69 -3 -31 -11 -74
-17 -94 -22 -75 28 -208 78 -208 20 0 104 40 104 50 0 5 10 12 23 17 17 6 10
9 -33 13 -52 5 -56 7 -74 45 -16 34 -17 46 -6 95 21 100 58 210 70 210 5 0 11
14 15 31 4 17 13 33 21 36 8 3 14 11 14 17 0 39 178 228 245 260 22 10 52 25
67 33 14 7 56 13 92 13 54 0 68 3 73 18 4 9 10 19 15 22 4 3 9 17 10 30 5 39
-57 48 -184 26z"/>
<path d="M7020 5919 c0 -5 5 -7 10 -4 6 3 10 8 10 11 0 2 -4 4 -10 4 -5 0 -10
-5 -10 -11z"/>
<path d="M5054 5650 c-23 -9 -94 -90 -94 -107 0 -6 -7 -16 -15 -23 -8 -7 -15
-20 -15 -29 0 -13 7 -16 33 -13 40 5 54 -9 72 -75 38 -135 70 -173 145 -173
34 0 52 5 65 20 10 11 23 20 28 20 11 0 68 59 94 98 21 30 8 40 -20 15 -32
-29 -92 -63 -110 -63 -8 0 -28 11 -44 24 -34 29 -53 108 -53 223 0 89 -21 110
-86 83z"/>
<path d="M7550 5558 c-58 -88 -66 -99 -91 -145 -63 -113 -78 -145 -80 -179 -3
-36 -2 -39 21 -36 13 1 24 3 25 5 1 1 21 26 43 55 23 30 42 60 42 67 0 7 6 18
14 24 8 7 17 27 20 45 4 19 13 39 21 46 8 7 15 24 15 39 0 15 7 36 15 48 18
25 32 113 19 113 -5 0 -34 -37 -64 -82z"/>
<path d="M6190 5600 c0 -5 5 -10 10 -10 6 0 10 5 10 10 0 6 -4 10 -10 10 -5 0
-10 -4 -10 -10z"/>
<path d="M5420 5462 c-39 -43 -43 -52 -26 -52 9 0 16 8 16 20 0 11 7 20 15 20
8 0 15 7 15 15 0 18 -1 18 -20 -3z"/>
<path d="M4100 6966 c-14 -7 -52 -17 -84 -21 -33 -4 -66 -13 -73 -21 -8 -8
-24 -14 -36 -14 -12 0 -35 -9 -52 -20 -16 -11 -40 -20 -51 -20 -12 0 -27 -7
-34 -15 -7 -8 -20 -15 -30 -15 -9 0 -29 -9 -43 -20 -14 -11 -34 -20 -45 -20
-12 0 -24 -5 -28 -11 -3 -6 -21 -18 -38 -25 -43 -20 -129 -75 -150 -96 -10
-10 -26 -18 -37 -18 -11 0 -22 -7 -25 -15 -4 -8 -12 -15 -18 -15 -7 0 -33 -23
-59 -51 -26 -29 -64 -61 -85 -71 -20 -11 -47 -29 -59 -40 -21 -20 -35 -20
-902 -19 -485 1 -881 -1 -881 -4 0 -4 8 -14 17 -23 15 -16 82 -17 832 -17 449
0 830 4 847 8 28 7 32 5 38 -17 4 -18 -3 -38 -29 -77 -19 -30 -35 -61 -35 -69
0 -9 -7 -25 -15 -37 -20 -28 -45 -151 -45 -218 0 -57 18 -110 63 -186 15 -27
86 -99 97 -99 4 0 14 -7 21 -16 11 -14 28 -16 97 -11 l84 5 -7 -92 c-6 -87 -8
-92 -41 -123 -28 -27 -42 -33 -78 -33 -53 0 -83 -10 -113 -39 -32 -30 -32
-112 -1 -156 20 -30 81 -65 112 -65 25 0 40 -28 28 -53 -7 -12 -14 -74 -16
-137 -3 -68 -11 -133 -20 -159 -22 -60 -22 -286 -1 -327 8 -16 15 -42 15 -57
0 -20 12 -39 42 -67 l41 -40 87 0 c85 0 86 0 127 38 50 45 62 88 38 134 -26
49 -35 455 -11 511 8 22 19 81 22 132 4 51 10 98 14 105 4 6 24 13 46 17 21 3
42 12 47 19 4 7 22 16 40 19 17 4 41 14 52 21 11 8 27 14 36 14 9 0 22 6 28
14 7 8 25 18 41 21 16 3 31 13 34 21 3 8 16 14 28 14 13 0 29 9 36 20 7 11 23
20 36 20 13 0 26 6 29 13 3 7 33 32 68 55 91 60 126 90 280 242 100 99 149
155 181 210 53 90 98 183 98 202 0 8 5 19 11 25 6 6 15 33 20 60 5 26 19 72
31 102 18 45 19 58 10 85 -7 18 -12 66 -12 107 -1 49 -6 80 -15 93 -8 11 -15
30 -15 41 0 12 -9 32 -20 45 -11 13 -20 30 -20 38 0 15 -5 22 -60 77 -59 60
-138 105 -185 105 -16 0 -39 7 -49 15 -26 20 -220 20 -256 1z m311 -52 c8 -6
25 -15 38 -19 24 -7 68 -35 111 -70 26 -21 80 -95 80 -110 0 -5 6 -16 14 -24
7 -9 21 -58 31 -108 18 -89 18 -96 1 -190 -10 -54 -24 -111 -32 -127 -8 -16
-14 -36 -14 -45 0 -9 -9 -31 -20 -49 -11 -18 -20 -38 -20 -45 0 -7 -15 -36
-34 -64 -19 -29 -37 -61 -41 -72 -3 -10 -12 -22 -20 -25 -8 -3 -15 -12 -15
-19 0 -8 -9 -22 -20 -32 -11 -10 -20 -22 -20 -27 0 -4 -8 -16 -17 -27 -10 -10
-37 -39 -61 -65 -23 -25 -47 -46 -52 -46 -6 0 -10 -4 -10 -10 0 -8 -46 -60
-54 -60 -2 0 -27 -23 -56 -50 -30 -28 -64 -53 -77 -56 -13 -4 -23 -10 -23 -14
0 -8 -116 -90 -129 -90 -4 0 -18 -9 -31 -20 -13 -11 -28 -20 -35 -20 -7 0 -22
-9 -35 -20 -13 -11 -31 -20 -40 -20 -10 0 -23 -7 -30 -15 -7 -8 -18 -15 -24
-15 -6 0 -28 -9 -49 -20 -20 -11 -44 -20 -52 -20 -8 0 -32 -9 -52 -20 -21 -11
-46 -20 -55 -20 -13 0 -18 -8 -18 -30 0 -16 -6 -49 -14 -72 -25 -73 -40 -403
-27 -582 13 -178 10 -204 -28 -212 -14 -3 -44 -9 -65 -14 -24 -5 -47 -5 -57 1
-10 5 -28 9 -42 9 -13 0 -34 12 -48 28 l-24 27 0 275 c1 229 3 283 17 321 9
25 18 74 19 110 l3 64 -45 3 c-24 1 -54 4 -66 7 -28 7 -75 87 -68 117 9 34 72
71 130 75 99 8 115 22 115 106 0 23 7 55 15 70 8 16 18 59 21 95 4 37 12 78
19 92 7 14 15 52 19 85 4 32 13 80 21 105 24 79 43 154 50 200 4 25 14 57 21
72 8 15 14 42 14 60 0 23 9 43 31 66 26 27 37 32 78 32 39 0 53 -5 74 -26 14
-14 28 -38 32 -53 6 -28 -19 -166 -34 -185 -4 -6 -11 -35 -14 -63 -3 -29 -13
-74 -21 -100 -8 -27 -20 -77 -26 -113 -6 -36 -19 -110 -31 -165 -32 -161 -32
-165 -19 -165 15 0 95 39 155 75 22 13 47 27 55 32 42 21 166 126 255 216 81
83 225 270 225 294 0 2 9 16 20 30 11 14 20 34 20 43 0 10 7 23 15 30 8 7 15
19 15 28 0 8 8 33 19 56 100 223 50 384 -130 415 -76 13 -233 -5 -284 -33 -16
-9 -42 -16 -57 -16 -16 0 -28 -5 -28 -10 0 -6 -12 -15 -27 -21 -37 -13 -43
-16 -78 -39 -16 -11 -41 -25 -55 -32 -14 -7 -27 -16 -30 -20 -6 -7 -79 -58
-84 -58 -11 0 -220 -201 -251 -241 -22 -28 -54 -96 -70 -146 -15 -48 -15 -57
-1 -105 10 -36 25 -61 47 -78 40 -32 51 -63 43 -117 -13 -85 -98 -138 -182
-114 -36 11 -132 98 -132 120 0 8 -8 23 -17 34 -15 16 -18 39 -18 141 0 99 3
127 18 149 9 14 17 35 17 45 0 10 9 29 20 42 11 13 20 28 20 34 0 7 7 21 15
31 8 11 37 49 64 85 66 88 103 125 169 176 32 24 64 50 73 59 9 8 21 15 28 15
6 0 14 6 17 14 3 8 19 18 35 21 16 4 29 10 29 15 0 5 12 15 28 23 15 7 48 26
74 40 26 15 52 27 58 27 7 0 23 9 37 20 14 11 38 20 52 20 15 0 34 9 44 20 9
11 28 20 43 20 14 0 34 5 45 11 11 6 44 17 72 25 29 8 66 19 82 24 43 13 329
8 346 -6z m-85 -241 c22 -21 50 -55 62 -76 34 -59 29 -93 -22 -169 -10 -15
-19 -48 -21 -73 -2 -25 -10 -54 -19 -64 -9 -9 -19 -32 -22 -49 -4 -17 -13 -37
-20 -43 -8 -6 -14 -17 -15 -23 0 -6 -20 -38 -45 -71 -24 -33 -50 -71 -56 -85
-13 -27 -38 -56 -130 -154 -32 -33 -58 -64 -58 -68 0 -5 -4 -8 -9 -8 -5 0 -28
-18 -50 -40 -22 -22 -47 -40 -55 -40 -8 0 -19 -6 -23 -13 -4 -8 -24 -24 -43
-38 -19 -13 -41 -30 -48 -36 -7 -7 -22 -13 -32 -13 -11 0 -23 -7 -28 -16 -5
-9 -18 -14 -28 -12 -25 4 -30 58 -11 112 9 23 17 72 20 110 3 47 10 72 20 77
10 6 17 33 22 83 3 41 13 83 20 93 8 10 15 32 15 50 0 18 7 53 16 79 18 53 22
150 6 166 -6 6 -8 17 -5 24 9 24 -16 42 -75 55 -86 19 -103 38 -53 59 16 6 32
18 35 26 3 8 12 14 21 14 8 0 15 5 15 11 0 5 15 17 33 25 17 8 51 25 74 38 22
13 54 27 69 30 15 4 33 14 39 23 6 8 32 17 58 20 26 3 52 12 58 19 9 10 41 14
128 14 l117 0 40 -37z m-881 -455 c-3 -18 -6 -68 -5 -110 1 -66 -2 -82 -21
-108 -25 -32 -54 -38 -84 -16 -26 19 -24 109 4 147 12 16 21 32 21 36 0 12 70
83 82 83 7 0 8 -12 3 -32z"/>
<path d="M4155 6849 c-164 -27 -164 -26 1 -28 145 -1 163 -3 184 -21 13 -11
28 -20 34 -20 17 0 86 -67 86 -83 0 -8 6 -17 13 -20 25 -9 37 -143 23 -240 -7
-48 -18 -93 -24 -99 -7 -7 -12 -18 -12 -26 0 -13 -74 -170 -102 -217 -100
-166 -192 -276 -328 -397 -36 -32 -72 -64 -81 -73 -9 -8 -20 -15 -26 -15 -5 0
-18 -9 -28 -20 -10 -11 -22 -20 -26 -20 -4 0 -31 -16 -60 -35 -30 -19 -59 -35
-65 -35 -6 0 -17 -6 -23 -14 -7 -8 -25 -18 -41 -21 -16 -3 -34 -13 -41 -21 -7
-8 -30 -14 -56 -14 -70 0 -102 51 -68 110 8 15 14 53 15 93 0 39 7 83 16 105
9 20 20 72 24 115 5 43 13 84 18 90 5 7 12 35 16 64 4 29 13 71 21 94 8 23 15
53 15 68 0 14 7 39 15 55 21 39 19 69 -5 84 -18 11 -22 8 -40 -28 -11 -21 -20
-52 -20 -67 0 -16 -9 -54 -20 -86 -11 -31 -20 -71 -20 -89 0 -18 -6 -45 -14
-59 -7 -14 -16 -50 -20 -80 -4 -30 -13 -74 -21 -99 -7 -25 -19 -72 -25 -105
-26 -145 -40 -205 -49 -224 -6 -11 -11 -32 -11 -46 0 -40 -17 -63 -52 -70 -18
-4 -38 -12 -45 -17 -6 -5 -37 -12 -67 -15 -55 -6 -70 -15 -42 -26 8 -3 39 -3
69 0 47 5 58 2 76 -16 17 -17 21 -33 21 -86 0 -35 -6 -84 -14 -107 -34 -101
-54 -536 -28 -610 13 -36 16 -38 55 -38 l42 0 0 307 c1 260 3 318 18 369 9 34
17 81 17 104 0 83 47 135 140 155 19 4 40 14 48 21 7 8 23 14 34 14 11 0 31 9
45 20 14 11 34 20 43 20 10 0 42 16 71 35 30 19 57 35 61 35 5 0 31 16 58 35
27 19 53 35 57 35 3 0 13 7 22 15 23 22 118 95 124 95 9 0 167 160 167 170 0
5 4 10 8 10 5 0 32 34 61 75 28 41 56 75 62 75 5 0 9 8 9 18 0 10 8 29 17 42
24 34 53 92 53 105 0 6 9 27 20 48 11 20 20 47 20 60 0 13 7 32 15 43 21 27
21 251 0 278 -8 11 -15 26 -15 33 0 31 -99 143 -126 143 -7 0 -17 7 -21 15 -5
9 -36 19 -78 25 -113 18 -137 19 -200 9z"/>
<path d="M3905 6790 c-8 -13 45 -13 65 0 11 7 6 10 -22 10 -20 0 -40 -4 -43
-10z"/>
<path d="M3828 6753 c12 -2 30 -2 40 0 9 3 -1 5 -23 4 -22 0 -30 -2 -17 -4z"/>
<path d="M3715 6708 c-22 -12 -47 -25 -55 -30 -8 -4 -26 -14 -40 -21 -14 -6
-29 -15 -35 -20 -29 -22 -87 -57 -95 -57 -6 0 -10 -4 -10 -9 0 -5 -24 -25 -54
-45 -56 -37 -181 -165 -199 -203 -6 -13 -14 -23 -18 -23 -5 0 -16 -15 -24 -32
-8 -18 -26 -53 -40 -77 -14 -24 -25 -51 -25 -60 0 -9 -7 -29 -15 -45 -21 -40
-19 -125 5 -179 30 -67 91 -127 129 -127 25 0 34 7 49 36 l19 36 -48 50 c-38
39 -50 60 -55 95 -10 69 1 181 20 202 9 9 16 24 16 32 0 36 167 221 274 304
21 17 43 35 50 40 10 10 36 28 95 68 14 9 41 24 59 32 17 8 32 20 32 25 0 6 9
10 19 10 11 0 23 5 26 10 11 17 -38 10 -80 -12z"/>
<path d="M3855 6431 l-40 -6 25 -17 c21 -16 49 -18 208 -18 153 0 188 3 215
17 l32 17 -45 7 c-54 9 -338 9 -395 0z"/>
<path d="M5076 6723 c-2 -10 -8 -67 -11 -128 -9 -150 -13 -155 -118 -156 -45
0 -100 -3 -122 -7 l-40 -8 26 -17 c23 -15 47 -17 165 -15 l139 3 3 100 c4 137
-6 245 -23 245 -8 0 -16 -8 -19 -17z"/>
<path d="M9846 6555 c-3 -9 -19 -15 -41 -15 -24 0 -35 -4 -35 -15 0 -9 -9 -15
-23 -15 -12 0 -39 -9 -60 -20 -20 -11 -48 -20 -60 -20 -13 0 -37 -6 -53 -14
-16 -8 -60 -17 -99 -21 -38 -4 -95 -13 -125 -21 -43 -12 -124 -15 -385 -14
-385 2 -416 1 -275 -13 115 -12 612 -13 755 -3 50 4 99 11 110 16 32 14 97 30
126 30 15 0 29 7 33 15 3 9 19 15 41 15 23 0 41 7 52 20 11 12 30 20 50 20 26
0 33 4 33 20 0 11 7 20 15 20 8 0 15 7 15 15 0 10 -10 15 -34 15 -21 0 -36 -6
-40 -15z"/>
<path d="M5940 6431 c0 -21 61 -31 192 -31 119 0 277 15 266 25 -7 7 -458 13
-458 6z"/>
<path d="M10121 3496 c-18 -19 -24 -42 -31 -122 -6 -55 -15 -143 -20 -197 -6
-54 -10 -210 -10 -347 0 -232 -1 -251 -19 -269 -18 -18 -46 -19 -692 -20 -370
-1 -674 -3 -676 -4 -1 -2 11 -19 28 -38 17 -19 38 -43 48 -55 9 -11 26 -26 38
-32 32 -17 1384 -17 1401 0 8 8 12 55 12 147 0 186 -19 866 -26 919 -6 48 -20
53 -53 18z"/>
<path d="M6913 3415 l-31 -14 -4 -415 c-2 -324 -6 -418 -16 -428 -10 -10 -136
-14 -609 -16 -328 -1 -598 -4 -601 -7 -5 -5 73 -102 98 -122 11 -9 162 -12
633 -13 l617 0 0 448 c0 246 -3 477 -7 515 -7 75 -15 80 -80 52z"/>
<path d="M5278 3292 c-10 -2 -21 -15 -24 -28 -4 -13 -15 -29 -25 -35 -11 -5
-19 -14 -19 -20 0 -13 -41 -72 -57 -82 -7 -4 -13 -14 -13 -21 0 -6 -21 -30
-46 -52 -26 -21 -65 -57 -88 -79 -59 -57 -131 -115 -145 -115 -6 0 -11 -4 -11
-10 0 -5 -15 -17 -32 -25 -18 -8 -46 -24 -63 -35 -27 -17 -107 -59 -145 -75
-8 -3 -26 -12 -40 -20 -14 -8 -37 -15 -52 -15 -14 0 -28 -5 -30 -11 -2 -5 -23
-15 -48 -20 -25 -6 -52 -16 -60 -23 -8 -8 -31 -16 -50 -19 -50 -8 -162 -38
-184 -49 -11 -6 -59 -14 -107 -18 -51 -4 -95 -13 -105 -21 -12 -10 -61 -16
-168 -20 -83 -3 -167 -11 -186 -18 -55 -18 -698 -14 -775 4 -35 9 -110 15
-178 15 -86 0 -128 4 -155 16 -20 9 -79 20 -130 24 -51 4 -98 12 -105 18 -6 5
-37 14 -67 20 -30 5 -70 15 -88 21 -75 26 -100 33 -147 47 -27 7 -51 18 -53
24 -2 5 -13 10 -25 10 -12 0 -39 9 -60 20 -20 11 -43 20 -51 20 -7 0 -19 6
-25 14 -7 8 -25 18 -41 21 -16 3 -31 13 -34 21 -3 8 -16 14 -28 13 l-23 0 23
-9 c12 -5 22 -16 22 -25 0 -8 8 -15 18 -15 9 0 34 -16 55 -35 21 -19 44 -35
51 -35 8 0 20 -7 27 -16 7 -9 22 -20 34 -25 11 -5 27 -13 35 -18 33 -21 101
-51 114 -51 7 0 19 -6 25 -14 7 -8 30 -17 52 -21 22 -4 43 -13 46 -21 3 -8 20
-14 42 -14 20 0 50 -9 66 -20 17 -11 45 -20 63 -20 19 0 48 -6 65 -13 42 -18
185 -48 268 -56 36 -3 73 -12 81 -18 10 -9 97 -16 274 -23 259 -10 304 -15
304 -31 0 -5 45 -9 100 -9 55 0 100 4 100 9 0 18 37 22 293 31 200 8 264 14
280 25 12 8 42 15 67 15 25 0 82 9 128 20 46 11 91 20 101 20 11 0 32 7 47 15
16 8 45 15 64 15 19 0 49 9 65 20 17 11 47 20 68 20 24 0 40 5 43 15 4 8 13
15 22 15 9 0 34 8 56 19 23 10 67 31 98 45 31 14 60 31 63 36 3 6 14 10 24 10
10 0 26 9 36 20 10 11 25 20 34 20 9 0 24 8 33 18 20 20 30 28 88 67 68 46
186 170 226 238 l36 62 -18 120 c-16 104 -21 120 -36 117z"/>
</g>
</svg>
